2D_gait_states
version=1
nRows=15
nColumns=39
inDegrees=yes

# SIMM Motion File Header:
name 2D_gait_states
datacolumns 39
datarows 15
otherdata 1
range 0.59873391 0.90199798
endheader
time	/hamstrings_r/activation	/bifemsh_r/activation	/glut_max_r/activation	/iliopsoas_r/activation	/rect_fem_r/activation	/vasti_r/activation	/gastroc_r/activation	/soleus_r/activation	/tib_ant_r/activation	/hamstrings_l/activation	/bifemsh_l/activation	/glut_max_l/activation	/iliopsoas_l/activation	/rect_fem_l/activation	/vasti_l/activation	/gastroc_l/activation	/soleus_l/activation	/tib_ant_l/activation	/jointset/groundPelvis/pelvis_tilt/value	/jointset/groundPelvis/pelvis_tilt/speed	/jointset/groundPelvis/pelvis_tx/value	/jointset/groundPelvis/pelvis_tx/speed	/jointset/groundPelvis/pelvis_ty/value	/jointset/groundPelvis/pelvis_ty/speed	/jointset/hip_l/hip_flexion_l/value	/jointset/hip_l/hip_flexion_l/speed	/jointset/hip_r/hip_flexion_r/value	/jointset/hip_r/hip_flexion_r/speed	/jointset/knee_l/knee_angle_l/value	/jointset/knee_l/knee_angle_l/speed	/jointset/knee_r/knee_angle_r/value	/jointset/knee_r/knee_angle_r/speed	/jointset/ankle_l/ankle_angle_l/value	/jointset/ankle_l/ankle_angle_l/speed	/jointset/ankle_r/ankle_angle_r/value	/jointset/ankle_r/ankle_angle_r/speed	/jointset/lumbar/lumbar/value	/jointset/lumbar/lumbar/speed
      0.59873391	      0.00000000	      0.00000000	      0.00000000	      0.00000000	      0.00000000	      0.00000000	      0.00000000	      0.00000000	      0.00000000	      0.00000000	      0.00000000	      0.00000000	      0.00000000	      0.00000000	      0.00000000	      0.00000000	      0.00000000	      0.00000000	      1.48345827	     48.95266520	     -0.00418313	      0.03075049	     -0.79450960	     -5.77876752	     -0.27797741	    -44.68232156	     15.73610907	   -117.42128331	    -21.84751717	     68.80704028	    -40.11891993	     51.82361921	    -13.06275194	     -2.38247858	    -11.85246278	     -4.10265107	    -11.10384251	    -53.91175989
      0.62039563	      0.00000000	      0.00000000	      0.00000000	      0.00000000	      0.00000000	      0.00000000	      0.00000000	      0.00000000	      0.00000000	      0.00000000	      0.00000000	      0.00000000	      0.00000000	      0.00000000	      0.00000000	      0.00000000	      0.00000000	      0.00000000	      2.26834008	     23.26689144	     -0.00358283	      0.02469352	     -0.92241393	     -6.03089648	     -0.88945360	    -11.36841992	     13.50182892	    -88.44900295	    -20.45089146	     59.84534802	    -38.95875549	     55.01400782	    -13.08510292	      0.00159464	    -11.90250331	     -0.78032748	    -11.95640396	    -24.55372394
      0.64205735	      0.00000000	      0.00000000	      0.00000000	      0.00000000	      0.00000000	      0.00000000	      0.00000000	      0.00000000	      0.00000000	      0.00000000	      0.00000000	      0.00000000	      0.00000000	      0.00000000	      0.00000000	      0.00000000	      0.00000000	      0.00000000	      2.48859223	     -2.82601170	     -0.00311263	      0.01872603	     -1.05579381	     -6.28374463	     -0.76373714	     22.89438002	     11.91169164	    -58.42656094	    -19.26322225	     49.71205044	    -37.74439847	     56.97549369	    -13.07691360	      0.45047848	    -11.89859437	      0.85741335	    -12.16533968	      5.12890228
      0.66371907	      0.00000000	      0.00000000	      0.00000000	      0.00000000	      0.00000000	      0.00000000	      0.00000000	      0.00000000	      0.00000000	      0.00000000	      0.00000000	      0.00000000	      0.00000000	      0.00000000	      0.00000000	      0.00000000	      0.00000000	      0.00000000	      2.15753443	    -27.31528420	     -0.00277175	      0.01273869	     -1.19462930	     -6.53410680	      0.08909943	     55.32264076	     10.95835020	    -30.08982246	    -18.29765178	     39.51021621	    -36.49290695	     58.58414797	    -13.07640897	     -0.58265499	    -11.87673045	      0.93383043	    -11.74765318	     32.95558470
      0.68538079	      0.00000000	      0.00000000	      0.00000000	      0.00000000	      0.00000000	      0.00000000	      0.00000000	      0.00000000	      0.00000000	      0.00000000	      0.00000000	      0.00000000	      0.00000000	      0.00000000	      0.00000000	      0.00000000	      0.00000000	      0.00000000	      1.33014751	    -48.35547276	     -0.00256075	      0.00676569	     -1.33883511	     -6.77912513	      1.60124632	     83.35812006	     10.57777216	     -5.94314326	    -17.54500739	     30.20186630	    -35.20304183	     60.64299273	    -13.10639484	     -2.20340346	    -11.86600657	     -0.07650289	    -10.76551386	     56.91997018
      0.70704250	      0.00000000	      0.00000000	      0.00000000	      0.00000000	      0.00000000	      0.00000000	      0.00000000	      0.00000000	      0.00000000	      0.00000000	      0.00000000	      0.00000000	      0.00000000	      0.00000000	      0.00000000	      0.00000000	      0.00000000	      0.00000000	      0.09979450	    -64.25639684	     -0.00247581	      0.00120172	     -1.48826708	     -7.01623570	      3.65183556	    104.67598121	     10.65421052	     11.75773884	    -16.97686645	     22.59216257	    -33.85749858	     63.82148133	    -13.16936480	     -3.48943226	    -11.88365827	     -1.59300861	     -9.32316337	     75.14953038
      0.72870422	      0.00000000	      0.00000000	      0.00000000	      0.00000000	      0.00000000	      0.00000000	      0.00000000	      0.00000000	      0.00000000	      0.00000000	      0.00000000	      0.00000000	      0.00000000	      0.00000000	      0.00000000	      0.00000000	      0.00000000	      0.00000000	     -1.40615146	    -73.59824441	     -0.00249999	     -0.00314510	     -1.64273014	     -7.24335198	      6.07365040	    117.36578536	     11.02711700	     21.17295859	    -16.54980021	     17.24426908	    -32.42655686	     68.58353114	    -13.25022066	     -3.77521113	    -11.93515040	     -3.13838932	     -7.56303991	     86.02407793
      0.75036594	      0.00000000	      0.00000000	      0.00000000	      0.00000000	      0.00000000	      0.00000000	      0.00000000	      0.00000000	      0.00000000	      0.00000000	      0.00000000	      0.00000000	      0.00000000	      0.00000000	      0.00000000	      0.00000000	      0.00000000	      0.00000000	     -3.03450875	    -75.46212570	     -0.00259557	     -0.00521127	     -1.80199261	     -7.45925219	      8.66542080	    120.25318542	     11.50323995	     21.17856124	    -16.21176274	     14.37498340	    -30.87336696	     75.11259293	    -13.32373980	     -2.80848108	    -12.01798412	     -4.46926513	     -5.65758818	     88.44669859
      0.77202766	      0.00000000	      0.00000000	      0.00000000	      0.00000000	      0.00000000	      0.00000000	      0.00000000	      0.00000000	      0.00000000	      0.00000000	      0.00000000	      0.00000000	      0.00000000	      0.00000000	      0.00000000	      0.00000000	      0.00000000	      0.00000000	     -4.61999231	    -69.68725621	     -0.00270219	     -0.00403663	     -1.96580944	     -7.66397486	     11.21148940	    113.22964680	     11.87564317	     11.67933526	    -15.91037610	     13.79581285	    -29.16057168	     83.26818186	    -13.36427281	     -0.80257625	    -12.12738745	     -5.61741200	     -3.79441919	     82.16210454
      0.79368938	      0.00000000	      0.00000000	      0.00000000	      0.00000000	      0.00000000	      0.00000000	      0.00000000	      0.00000000	      0.00000000	      0.00000000	      0.00000000	      0.00000000	      0.00000000	      0.00000000	      0.00000000	      0.00000000	      0.00000000	      0.00000000	     -6.00362422	    -57.02788571	     -0.00274381	      0.00079183	     -2.13395182	     -7.85898043	     13.50712228	     97.41783353	     11.94827326	     -6.21514490	    -15.60147813	     14.95249747	    -27.25752632	     92.57351320	    -13.35543546	      1.62076306	    -12.26171564	     -6.82048818	     -2.15549337	     67.96421492
      0.81535110	      0.00000000	      0.00000000	      0.00000000	      0.00000000	      0.00000000	      0.00000000	      0.00000000	      0.00000000	      0.00000000	      0.00000000	      0.00000000	      0.00000000	      0.00000000	      0.00000000	      0.00000000	      0.00000000	      0.00000000	      0.00000000	     -7.05244535	    -39.10653871	     -0.00264440	      0.00883536	     -2.30623634	     -8.04693350	     15.38439339	     75.05009424	     11.56150878	    -30.29074114	    -15.25565999	     17.06544524	    -25.14691720	    102.29472560	    -13.29711612	      3.62516825	    -12.42552902	     -8.38671780	     -0.89428415	     47.66216792
      0.83701282	      0.00000000	      0.00000000	      0.00000000	      0.00000000	      0.00000000	      0.00000000	      0.00000000	      0.00000000	      0.00000000	      0.00000000	      0.00000000	      0.00000000	      0.00000000	      0.00000000	      0.00000000	      0.00000000	      0.00000000	      0.00000000	     -7.67613348	    -18.19101024	     -0.00234708	      0.01878499	     -2.48254626	     -8.23124242	     16.73279490	     49.13018629	     10.61296175	    -57.53594901	    -14.86135014	     19.29037365	    -22.82924365	    111.52844059	    -13.20684613	      4.47548665	    -12.62904498	    -10.49164562	     -0.11622304	     23.82877021
      0.85867454	      0.00000000	      0.00000000	      0.00000000	      0.00000000	      0.00000000	      0.00000000	      0.00000000	      0.00000000	      0.00000000	      0.00000000	      0.00000000	      0.00000000	      0.00000000	      0.00000000	      0.00000000	      0.00000000	      0.00000000	      0.00000000	     -7.83770153	      3.11920451	     -0.00183051	      0.02873813	     -2.66284227	     -8.41557198	     17.51151274	     23.01699014	      9.07072144	    -84.52302156	    -14.42495682	     20.82373775	    -20.32618148	    119.22559049	    -13.11402824	      3.85402309	    -12.88289323	    -12.97150985	      0.13400702	     -0.56716499
      0.88033626	      0.00000000	      0.00000000	      0.00000000	      0.00000000	      0.00000000	      0.00000000	      0.00000000	      0.00000000	      0.00000000	      0.00000000	      0.00000000	      0.00000000	      0.00000000	      0.00000000	      0.00000000	      0.00000000	      0.00000000	      0.00000000	     -7.55684764	     22.25020576	     -0.00111666	      0.03668419	     -2.84716321	     -8.60340179	     17.75239545	     -0.01090257	      6.97784244	   -107.82744349	    -13.96937113	     20.95250558	    -17.68353658	    124.20761333	    -13.04881499	      2.01477183	    -13.18960661	    -15.24075561	     -0.12346461	    -22.58132215
      0.90199798	      0.00000000	      0.00000000	      0.00000000	      0.00000000	      0.00000000	      0.00000000	      0.00000000	      0.00000000	      0.00000000	      0.00000000	      0.00000000	      0.00000000	      0.00000000	      0.00000000	      0.00000000	      0.00000000	      0.00000000	      0.00000000	     -6.90548321	     37.01984614	     -0.00026752	      0.04102676	     -3.03561763	     -8.79761149	     17.55359477	    -17.18902538	      4.44773341	   -124.46503375	    -13.53165068	     19.09331476	    -14.97385552	    125.22061176	    -13.03033910	     -0.31693628	    -13.53517212	    -16.41169319	     -0.80882210	    -39.72180562
